<svg width="1024" height="1024" viewBox="0 0 1024 1024" fill="none" xmlns="http://www.w3.org/2000/svg">
<path fill-rule="evenodd" clip-rule="evenodd" d="M512 136C304.341 136 136 304.341 136 512C136 719.659 304.341 888 512 888C719.659 888 888 719.659 888 512C888 304.341 719.659 136 512 136ZM353.672 786.232L307.699 796.71C326.377 810.137 346.431 821.771 367.608 831.361L353.672 786.232ZM395.026 833.384L377.45 776.469L427.998 742.794L445.074 801.082L395.026 833.384ZM379.268 708.131L376.83 746.121L408.482 725.035C398.316 720.085 388.556 714.43 379.268 708.131ZM292.16 773.995L295.111 714.501L354.127 700.145L350.238 760.758L292.16 773.995ZM267.094 762.602L269.427 715.543L222.634 709.663C235.699 728.753 250.604 746.485 267.094 762.602ZM341.923 676.767L304.908 685.771L320.194 650.899C326.822 660.036 334.087 668.68 341.923 676.767ZM238.931 628.108L215.811 683.005L274.913 690.431L299.299 634.803L238.931 628.108ZM214.441 620.303L196.111 663.825C186.168 643.175 178.19 621.4 172.42 598.743L214.441 620.303ZM284.22 576.958L257.963 604.462L295.759 608.654C291.191 598.45 287.325 587.864 284.22 576.958ZM175.186 571.389L215.688 527.711L270.125 554.649L228.185 598.581L175.186 571.389ZM161.6 512C161.6 523.667 162.17 535.2 163.284 546.574L195.344 512L163.284 477.426C162.17 488.8 161.6 500.333 161.6 512ZM275.793 495.109C275.4 500.688 275.2 506.321 275.2 512C275.2 517.679 275.4 523.312 275.793 528.891L241.66 512L275.793 495.109ZM228.184 425.418L175.186 452.611L215.688 496.289L270.125 469.351L228.184 425.418ZM257.963 419.538L295.759 415.346C291.191 425.55 287.325 436.135 284.22 447.042L257.963 419.538ZM172.42 425.257L214.441 403.697L196.111 360.175C186.168 380.825 178.19 402.6 172.42 425.257ZM215.811 340.995L274.913 333.569L299.299 389.197L238.931 395.892L215.811 340.995ZM341.924 347.232L304.908 338.229L320.195 373.101C326.822 363.964 334.087 355.32 341.924 347.232ZM292.16 250.005L350.238 263.242L354.127 323.855L295.111 309.499L292.16 250.005ZM222.634 314.336L269.427 308.457L267.094 261.398C250.604 277.515 235.699 295.247 222.634 314.336ZM376.83 277.879L408.482 298.965C398.316 303.915 388.556 309.57 379.268 315.869L376.83 277.879ZM395.026 190.616L377.45 247.531L427.998 281.205L445.074 222.918L395.026 190.616ZM353.672 237.768L307.699 227.29C326.377 213.863 346.431 202.229 367.608 192.639L353.672 237.768ZM487.612 276.441L465.056 245.767L454.364 282.263C465.171 279.561 476.273 277.601 487.612 276.441ZM512 169.99L547.982 217.461L512 266.394L476.018 217.461L512 169.99ZM417.326 174.54L457.013 200.155L485.488 162.588C462.049 164.341 439.253 168.401 417.326 174.54ZM558.944 245.767L569.636 282.264C558.829 279.561 547.727 277.601 536.388 276.441L558.944 245.767ZM646.55 247.531L628.974 190.616L578.926 222.918L596.002 281.205L646.55 247.531ZM566.987 200.155L538.512 162.588C561.951 164.341 584.747 168.401 606.674 174.54L566.987 200.155ZM644.733 315.869L647.17 277.879L615.518 298.965C625.684 303.915 635.444 309.57 644.733 315.869ZM731.84 250.005L728.89 309.499L669.873 323.855L673.762 263.242L731.84 250.005ZM656.392 192.639L670.328 237.768L716.301 227.29C697.623 213.863 677.569 202.229 656.392 192.639ZM719.093 338.229L703.806 373.101C697.178 363.964 689.913 355.32 682.076 347.233L719.093 338.229ZM785.069 395.892L808.189 340.995L749.087 333.569L724.701 389.197L785.069 395.892ZM754.573 308.457L756.906 261.398C773.396 277.515 788.301 295.247 801.366 314.336L754.573 308.457ZM739.78 447.042L766.037 419.538L728.241 415.346C732.809 425.55 736.675 436.135 739.78 447.042ZM848.814 452.611L808.312 496.289L753.875 469.351L795.816 425.418L848.814 452.611ZM827.889 360.175L809.559 403.697L851.58 425.257C845.81 402.6 837.832 380.825 827.889 360.175ZM748.207 528.891C748.6 523.312 748.8 517.679 748.8 512C748.8 506.321 748.6 500.688 748.207 495.109L782.34 512L748.207 528.891ZM795.816 598.581L848.814 571.389L808.312 527.711L753.875 554.649L795.816 598.581ZM860.716 477.426C861.83 488.8 862.4 500.333 862.4 512C862.4 523.667 861.83 535.2 860.716 546.574L828.656 512L860.716 477.426ZM851.58 598.743L809.559 620.303L827.889 663.825C837.832 643.175 845.81 621.4 851.58 598.743ZM808.189 683.005L749.087 690.431L724.701 634.803L785.069 628.108L808.189 683.005ZM673.762 760.758L731.84 773.995L728.89 714.501L669.873 700.145L673.762 760.758ZM628.974 833.384L578.926 801.082L596.002 742.794L646.55 776.469L628.974 833.384ZM476.018 806.538L512 854.01L547.982 806.538L512 757.606L476.018 806.538ZM465.056 778.233L454.364 741.737C465.171 744.439 476.273 746.399 487.612 747.559L465.056 778.233ZM536.388 747.559L558.944 778.233L569.636 741.737C558.829 744.439 547.727 746.399 536.388 747.559ZM647.17 746.121L615.518 725.035C625.685 720.085 635.444 714.43 644.733 708.131L647.17 746.121ZM682.077 676.767L719.093 685.771L703.806 650.899C697.178 660.036 689.913 668.68 682.077 676.767ZM766.037 604.462L728.241 608.654C732.809 598.45 736.675 587.864 739.78 576.958L766.037 604.462ZM801.366 709.663L754.573 715.543L756.906 762.602C773.396 746.484 788.301 728.753 801.366 709.663ZM656.392 831.361L670.328 786.232L716.301 796.71C697.623 810.137 677.569 821.771 656.392 831.361ZM566.987 823.845L538.512 861.412C561.951 859.659 584.747 855.599 606.674 849.46L566.987 823.845ZM417.326 849.46L457.013 823.845L485.488 861.412C462.049 859.659 439.253 855.599 417.326 849.46ZM512 300.8C395.357 300.8 300.8 395.357 300.8 512C300.8 628.643 395.357 723.2 512 723.2C628.643 723.2 723.2 628.643 723.2 512C723.2 395.357 628.643 300.8 512 300.8Z" fill="white"/>
</svg>
