<svg xmlns="http://www.w3.org/2000/svg" width="768" height="768" fill="none"><path fill="#000" fill-rule="evenodd" stroke="#000" stroke-linecap="round" stroke-linejoin="round" stroke-width="16.168" d="M359.827 135.93c-40.718 0-73.727 33.009-73.728 73.727l.001 246.76c.001 40.719 33.01 73.728 73.728 73.728h145.151c40.72 0 73.73-33.01 73.73-73.728V285.921h-68.891c-44.791 0-81.101-36.311-81.101-81.101v-68.89zm114.97 0v68.89c0 19.341 15.679 35.021 35.021 35.021h68.891v-23.067a35.02 35.02 0 0 0-10.258-24.764l-45.823-45.823a35.03 35.03 0 0 0-24.764-10.257zm-233.692 57.534C249.01 134.955 299.152 89.85 359.827 89.85h138.037a81.1 81.1 0 0 1 57.347 23.753l45.823 45.823a81.1 81.1 0 0 1 23.755 57.348v239.643c0 58.669-42.172 107.488-97.855 117.8-7.906 58.509-58.047 103.614-118.723 103.614H263.059c-66.168 0-119.808-53.64-119.808-119.808l-.001-246.758c0-58.67 42.172-107.489 97.855-117.801m-1.086 47.744c-29.436 9.675-50.689 37.384-50.689 70.057l.001 246.758c0 40.719 33.009 73.728 73.728 73.728h145.152c34.438 0 63.36-23.61 71.464-55.526H359.828c-66.167 0-119.807-53.64-119.808-119.808z" clip-rule="evenodd"/></svg>