<svg xmlns="http://www.w3.org/2000/svg" width="768" height="768" fill="none"><path fill="#000" d="M363.776 67.997c-16.899 4.18-29.779 13.52-61.519 44.579l-22.479 21.999-38.999.701c-43.199.779-50.599 1.979-65.179 10.559-11.099 6.54-25.439 21.24-30.539 31.359-7.999 15.82-8.82 21.4-9.58 63.439l-.699 38.999-19.92 20.259c-42.66 43.338-50.219 57.28-48.439 89.239 1.42 25.337 9.72 39.158 45.559 75.776l23.04 23.542.04 32.099c.04 46.557 2.24 58.199 14.499 76.736 7.28 10.979 18.82 21.322 29.659 26.56 14.42 6.979 20.64 7.859 61.559 8.579l38.999.701 20.239 19.92c41.5 40.858 55.237 48.839 83.999 48.839 28.298 0 42.099-7.86 81.757-46.679l22.48-22.019 38.998-.701c43.2-.781 50.618-1.961 65.178-10.541 11.12-6.537 25.421-21.219 30.541-31.36 8-15.817 8.838-21.417 9.58-63.456l.698-38.998 19.939-20.24c42.659-43.36 50.221-57.318 48.419-89.258-1.417-25.34-9.718-39.139-45.558-75.759l-23.04-23.559-.038-32.079c-.042-46.559-2.221-58.199-14.5-76.739-7.26-10.979-18.819-21.339-29.66-26.579-14.42-6.98-20.64-7.84-61.559-8.559l-38.998-.701-20.24-19.939c-33.92-33.4-45.399-41.72-64.039-46.579-10.22-2.66-29.718-2.74-40.198-.14"/><path fill="#fff" d="M486.848 294.615c11.322-11.32 29.667-11.32 40.986 0 11.312 11.319 9.174 31.788 0 40.969L362.771 500.646c-9.542 9.536-24.051 11.008-35.155 4.468-2.467-1.2-4.669-2.698-6.438-4.468l-83.688-83.702c-11.32-11.322-11.32-29.651 0-40.97s31.789-9.18 40.968 0l63.516 63.501z"/></svg>